<?xml version="1.0" encoding="utf-8"?>
<!-- Generator: Adobe Illustrator 17.0.0, SVG Export Plug-In . SVG Version: 6.00 Build 0)  -->
<!DOCTYPE svg PUBLIC "-//W3C//DTD SVG 1.1//EN" "http://www.w3.org/Graphics/SVG/1.1/DTD/svg11.dtd" [
	<!ENTITY ns_flows "http://ns.adobe.com/Flows/1.0/">
	<!ENTITY ns_extend "http://ns.adobe.com/Extensibility/1.0/">
	<!ENTITY ns_ai "http://ns.adobe.com/AdobeIllustrator/10.0/">
	<!ENTITY ns_graphs "http://ns.adobe.com/Graphs/1.0/">
]>
<svg version="1.1" id="Capa_1" xmlns:x="&ns_extend;" xmlns:i="&ns_ai;" xmlns:graph="&ns_graphs;"
	 xmlns="http://www.w3.org/2000/svg" xmlns:xlink="http://www.w3.org/1999/xlink" xmlns:a="http://ns.adobe.com/AdobeSVGViewerExtensions/3.0/"
	 x="0px" y="0px" width="385.529px" height="119px" viewBox="0 0 385.529 119" enable-background="new 0 0 385.529 119"
	 xml:space="preserve">
<g>
	<g>
		<g>
			<path d="M2.777,87.824V73.966h1.947v5.691h7.649v-5.691h1.947v13.858h-1.947v-6.532H4.724v6.532H2.777z"/>
			<path d="M17.337,87.824V76.232h8.901V77.6h-7.272v3.55h6.81v1.36h-6.81v3.946h7.557v1.368H17.337z"/>
			<path d="M28.799,87.824V76.232h5.458c1.097,0,1.931,0.104,2.502,0.312c0.571,0.208,1.027,0.576,1.369,1.103
				c0.342,0.527,0.512,1.11,0.512,1.747c0,0.822-0.283,1.516-0.848,2.08c-0.565,0.564-1.439,0.923-2.62,1.075
				c0.431,0.195,0.758,0.388,0.982,0.577c0.476,0.411,0.926,0.925,1.352,1.542l2.141,3.155h-2.049l-1.629-2.412
				c-0.476-0.696-0.868-1.228-1.176-1.597c-0.308-0.369-0.584-0.627-0.827-0.775s-0.491-0.25-0.743-0.308
				c-0.185-0.037-0.487-0.055-0.907-0.055h-1.889v5.148H28.799z M30.428,81.348h3.501c0.745,0,1.327-0.073,1.747-0.218
				s0.739-0.377,0.957-0.696c0.218-0.319,0.328-0.665,0.328-1.04c0-0.548-0.211-0.999-0.634-1.352
				c-0.423-0.353-1.09-0.53-2.003-0.53h-3.896V81.348z"/>
			<path d="M41.176,87.824V76.232h1.671l6.466,9.101v-9.101h1.562v11.592h-1.671l-6.466-9.109v9.109H41.176z"/>
			<path d="M52.26,87.824l4.727-11.592h1.755l5.038,11.592h-1.856l-1.436-3.511h-5.147l-1.352,3.511H52.26z M55.812,83.064h4.173
				l-1.285-3.21c-0.392-0.975-0.683-1.777-0.873-2.404c-0.157,0.743-0.378,1.482-0.663,2.214L55.812,83.064z M56.828,75.52
				l1.117-2.214h1.982l-1.847,2.214H56.828z"/>
			<path d="M65.065,87.824V76.232h1.671l6.466,9.101v-9.101h1.562v11.592h-1.671l-6.465-9.109v9.109H65.065z"/>
			<path d="M77.501,87.824V76.232h4.24c0.957,0,1.688,0.055,2.192,0.166c0.705,0.153,1.307,0.43,1.805,0.83
				c0.649,0.517,1.135,1.177,1.457,1.981c0.322,0.804,0.483,1.723,0.483,2.756c0,0.881-0.109,1.661-0.328,2.341
				c-0.218,0.68-0.498,1.243-0.84,1.688c-0.342,0.446-0.715,0.796-1.121,1.052c-0.406,0.256-0.896,0.45-1.469,0.581
				c-0.574,0.132-1.233,0.198-1.977,0.198H77.501z M79.13,86.456h2.628c0.812,0,1.448-0.071,1.91-0.213
				c0.462-0.142,0.83-0.343,1.104-0.601c0.386-0.364,0.687-0.852,0.903-1.467c0.215-0.614,0.323-1.359,0.323-2.234
				c0-1.212-0.211-2.144-0.634-2.795c-0.423-0.651-0.936-1.087-1.541-1.309c-0.437-0.158-1.139-0.237-2.108-0.237H79.13V86.456z"/>
			<path d="M89.954,87.824V76.232h8.901V77.6h-7.272v3.55h6.81v1.36h-6.81v3.946h7.557v1.368H89.954z"/>
			<path d="M100.408,87.824V86.4l6.306-7.425c0.448-0.527,0.873-0.986,1.276-1.376h-6.869v-1.368h8.817V77.6l-6.911,8.042
				l-0.747,0.814h7.86v1.368H100.408z"/>
			<path d="M116.339,81.075c0-2.3,0.656-4.101,1.967-5.402c1.311-1.301,3.005-1.952,5.079-1.952c1.358,0,2.583,0.306,3.674,0.917
				c1.091,0.611,1.922,1.464,2.494,2.557c0.572,1.093,0.858,2.333,0.858,3.72c0,1.405-0.301,2.663-0.904,3.772
				c-0.602,1.109-1.456,1.949-2.56,2.519c-1.104,0.57-2.295,0.855-3.573,0.855c-1.385,0-2.623-0.315-3.714-0.945
				c-1.091-0.63-1.917-1.49-2.479-2.581C116.62,83.444,116.339,82.291,116.339,81.075z M118.347,81.103
				c0,1.67,0.477,2.986,1.43,3.946c0.954,0.961,2.15,1.441,3.588,1.441c1.465,0,2.672-0.485,3.619-1.456
				c0.947-0.97,1.42-2.347,1.42-4.131c0-1.128-0.202-2.113-0.607-2.954c-0.405-0.841-0.997-1.494-1.777-1.957
				c-0.78-0.463-1.655-0.695-2.625-0.695c-1.379,0-2.565,0.446-3.558,1.338C118.844,77.528,118.347,79.017,118.347,81.103z"/>
			<path d="M132.687,87.824V76.232h5.458c1.097,0,1.931,0.104,2.502,0.312c0.571,0.208,1.027,0.576,1.369,1.103
				c0.342,0.527,0.512,1.11,0.512,1.747c0,0.822-0.283,1.516-0.848,2.08c-0.565,0.564-1.439,0.923-2.62,1.075
				c0.431,0.195,0.758,0.388,0.982,0.577c0.476,0.411,0.926,0.925,1.352,1.542l2.141,3.155h-2.049l-1.629-2.412
				c-0.476-0.696-0.868-1.228-1.176-1.597c-0.308-0.369-0.584-0.627-0.827-0.775c-0.244-0.148-0.491-0.25-0.743-0.308
				c-0.185-0.037-0.487-0.055-0.907-0.055h-1.889v5.148H132.687z M134.317,81.348h3.501c0.745,0,1.327-0.073,1.747-0.218
				c0.42-0.145,0.739-0.377,0.957-0.696c0.218-0.319,0.328-0.665,0.328-1.04c0-0.548-0.211-0.999-0.634-1.352
				c-0.423-0.353-1.09-0.53-2.003-0.53h-3.896V81.348z"/>
			<path d="M147.903,87.824V77.6h-4.056v-1.368h9.757V77.6h-4.073v10.224H147.903z"/>
			<path d="M155.552,87.824V76.232h1.629v11.592H155.552z"/>
			<path d="M159.071,87.824V86.4l6.306-7.425c0.448-0.527,0.873-0.986,1.276-1.376h-6.869v-1.368h8.817V77.6l-6.911,8.042
				l-0.747,0.814h7.86v1.368H159.071z"/>
			<path d="M178.493,87.824v-4.911l-4.744-6.682h1.982l2.427,3.495c0.448,0.654,0.865,1.307,1.251,1.961
				c0.37-0.606,0.817-1.289,1.344-2.048l2.385-3.408h1.898l-4.912,6.682v4.911H178.493z"/>
			<path d="M198.107,82.389v-1.626l6.233-0.009v5.142c-0.957,0.719-1.944,1.259-2.961,1.621c-1.017,0.362-2.061,0.543-3.132,0.543
				c-1.446,0-2.759-0.291-3.94-0.874c-1.181-0.583-2.073-1.426-2.675-2.529s-0.904-2.335-0.904-3.696
				c0-1.349,0.299-2.607,0.898-3.776c0.599-1.169,1.461-2.037,2.585-2.604c1.124-0.567,2.419-0.851,3.885-0.851
				c1.064,0,2.026,0.162,2.886,0.487s1.534,0.777,2.023,1.356c0.488,0.58,0.86,1.336,1.114,2.269l-1.757,0.454
				c-0.221-0.706-0.495-1.26-0.823-1.664c-0.328-0.403-0.797-0.726-1.405-0.969c-0.609-0.243-1.285-0.364-2.028-0.364
				c-0.89,0-1.66,0.128-2.309,0.383c-0.649,0.255-1.173,0.591-1.571,1.007c-0.398,0.416-0.708,0.873-0.928,1.371
				c-0.375,0.857-0.562,1.786-0.562,2.789c0,1.235,0.226,2.269,0.677,3.101c0.452,0.832,1.109,1.449,1.973,1.853
				c0.863,0.403,1.78,0.605,2.75,0.605c0.843,0,1.666-0.153,2.469-0.458c0.803-0.306,1.412-0.632,1.827-0.978v-2.581H198.107z"/>
			<path d="M205.6,87.824l4.727-11.592h1.755l5.038,11.592h-1.856l-1.436-3.511h-5.147l-1.352,3.511H205.6z M209.152,83.064h4.173
				l-1.285-3.21c-0.392-0.975-0.683-1.777-0.873-2.404c-0.157,0.743-0.378,1.482-0.663,2.214L209.152,83.064z"/>
			<path d="M218.447,87.824V76.232h5.458c1.097,0,1.931,0.104,2.502,0.312c0.571,0.208,1.027,0.576,1.369,1.103
				c0.342,0.527,0.512,1.11,0.512,1.747c0,0.822-0.283,1.516-0.848,2.08c-0.565,0.564-1.439,0.923-2.62,1.075
				c0.431,0.195,0.758,0.388,0.982,0.577c0.476,0.411,0.926,0.925,1.352,1.542l2.141,3.155h-2.049l-1.629-2.412
				c-0.476-0.696-0.868-1.228-1.176-1.597c-0.308-0.369-0.584-0.627-0.827-0.775c-0.244-0.148-0.491-0.25-0.743-0.308
				c-0.185-0.037-0.487-0.055-0.907-0.055h-1.889v5.148H218.447z M220.077,81.348h3.501c0.745,0,1.327-0.073,1.747-0.218
				c0.42-0.145,0.739-0.377,0.957-0.696c0.218-0.319,0.328-0.665,0.328-1.04c0-0.548-0.211-0.999-0.634-1.352
				c-0.423-0.353-1.09-0.53-2.003-0.53h-3.896V81.348z"/>
			<path d="M239.625,83.759l1.629,0.388c-0.342,1.26-0.956,2.221-1.843,2.882c-0.887,0.662-1.972,0.992-3.254,0.992
				c-1.327,0-2.406-0.254-3.237-0.763c-0.831-0.509-1.464-1.245-1.898-2.21c-0.434-0.965-0.651-2.001-0.651-3.108
				c0-1.207,0.245-2.26,0.735-3.159s1.187-1.582,2.091-2.048c0.904-0.466,1.899-0.7,2.985-0.7c1.232,0,2.267,0.295,3.107,0.886
				c0.84,0.591,1.424,1.421,1.755,2.491l-1.604,0.356c-0.285-0.843-0.7-1.458-1.243-1.842c-0.543-0.385-1.226-0.577-2.049-0.577
				c-0.946,0-1.737,0.213-2.372,0.64c-0.635,0.427-1.082,1-1.339,1.72c-0.258,0.72-0.386,1.462-0.386,2.226
				c0,0.986,0.152,1.846,0.458,2.582c0.305,0.735,0.779,1.285,1.423,1.649c0.644,0.364,1.341,0.546,2.091,0.546
				c0.912,0,1.685-0.248,2.317-0.743C238.972,85.47,239.401,84.735,239.625,83.759z"/>
			<path d="M243.118,75.52l1.117-2.214h1.982l-1.847,2.214H243.118z M243.538,87.824V76.232h1.629v11.592H243.538z"/>
			<path d="M246.686,87.824l4.727-11.592h1.755l5.038,11.592h-1.855l-1.436-3.511h-5.147l-1.352,3.511H246.686z M250.238,83.064
				h4.173l-1.285-3.21c-0.392-0.975-0.683-1.777-0.873-2.404c-0.157,0.743-0.378,1.482-0.663,2.214L250.238,83.064z"/>
			<path d="M263.536,87.824V73.966h2.931l3.483,9.812c0.321,0.914,0.555,1.597,0.703,2.051c0.168-0.504,0.428-1.244,0.783-2.221
				l3.523-9.642h2.62v13.858h-1.877V76.225l-4.276,11.599h-1.757l-4.256-11.797v11.797H263.536z"/>
			<path d="M279.966,82.178c0-1.924,0.549-3.43,1.646-4.519c1.097-1.089,2.513-1.633,4.249-1.633c1.136,0,2.161,0.256,3.073,0.767
				c0.912,0.511,1.608,1.224,2.087,2.139c0.479,0.914,0.718,1.952,0.718,3.111c0,1.176-0.252,2.227-0.755,3.155
				c-0.504,0.928-1.218,1.63-2.141,2.107c-0.924,0.477-1.92,0.716-2.99,0.716c-1.158,0-2.195-0.263-3.107-0.791
				c-0.912-0.527-1.604-1.247-2.074-2.159C280.201,84.16,279.966,83.195,279.966,82.178z M281.645,82.202
				c0,1.397,0.399,2.497,1.197,3.301s1.798,1.206,3.002,1.206c1.226,0,2.235-0.406,3.027-1.218c0.792-0.812,1.188-1.964,1.188-3.456
				c0-0.944-0.169-1.767-0.508-2.471c-0.339-0.704-0.834-1.249-1.486-1.637c-0.652-0.388-1.384-0.581-2.196-0.581
				c-1.154,0-2.146,0.373-2.977,1.119S281.645,80.457,281.645,82.202z"/>
			<path d="M293.821,87.824V76.232h1.671l6.466,9.101v-9.101h1.562v11.592h-1.671l-6.466-9.109v9.109H293.821z"/>
			<path d="M309.389,87.824V77.6h-4.056v-1.368h9.757V77.6h-4.073v10.224H309.389z"/>
			<path d="M317.038,87.824V76.232h1.629v11.592H317.038z"/>
			<path d="M321.573,87.824V76.232h8.901V77.6h-7.272v3.55h6.81v1.36h-6.81v3.946h7.557v1.368H321.573z"/>
			<path d="M332.942,87.824V76.232h1.629v10.224h6.062v1.368H332.942z"/>
			<path d="M342.775,87.824v-1.621h1.722v1.621c0,0.596-0.112,1.077-0.336,1.443c-0.224,0.366-0.579,0.65-1.067,0.85l-0.42-0.609
				c0.319-0.132,0.554-0.326,0.705-0.581c0.151-0.256,0.235-0.624,0.252-1.103H342.775z"/>
			<path d="M351.575,84.099l1.537-0.126c0.073,0.58,0.242,1.056,0.508,1.427c0.266,0.372,0.679,0.672,1.239,0.901
				c0.56,0.229,1.189,0.344,1.889,0.344c0.622,0,1.17-0.087,1.646-0.261c0.476-0.174,0.83-0.412,1.062-0.715
				c0.232-0.303,0.348-0.634,0.348-0.992c0-0.364-0.112-0.681-0.336-0.953c-0.224-0.271-0.593-0.499-1.108-0.684
				c-0.33-0.121-1.061-0.31-2.191-0.565c-1.131-0.256-1.923-0.497-2.376-0.724c-0.588-0.29-1.026-0.65-1.314-1.079
				c-0.288-0.43-0.433-0.911-0.433-1.443c0-0.585,0.176-1.132,0.529-1.641c0.353-0.509,0.868-0.895,1.545-1.158
				c0.677-0.263,1.43-0.395,2.259-0.395c0.912,0,1.717,0.138,2.414,0.415c0.697,0.277,1.233,0.684,1.608,1.222
				s0.577,1.147,0.605,1.827l-1.562,0.111c-0.084-0.733-0.368-1.286-0.852-1.661c-0.484-0.374-1.2-0.561-2.145-0.561
				c-0.985,0-1.703,0.17-2.154,0.51c-0.451,0.34-0.676,0.75-0.676,1.23c0,0.416,0.159,0.759,0.479,1.028
				c0.314,0.269,1.132,0.544,2.456,0.826c1.324,0.282,2.232,0.529,2.725,0.739c0.716,0.311,1.245,0.705,1.587,1.182
				c0.342,0.477,0.512,1.027,0.512,1.649c0,0.617-0.188,1.198-0.563,1.744c-0.375,0.546-0.914,0.97-1.616,1.273
				c-0.703,0.303-1.494,0.455-2.372,0.455c-1.114,0-2.047-0.153-2.8-0.458c-0.753-0.306-1.343-0.766-1.772-1.38
				C351.823,85.569,351.597,84.874,351.575,84.099z"/>
			<path d="M363.834,87.824v-1.621h1.721v1.621H363.834z"/>
			<path d="M377.16,83.759l1.629,0.388c-0.342,1.26-0.956,2.221-1.843,2.882c-0.887,0.662-1.972,0.992-3.254,0.992
				c-1.326,0-2.406-0.254-3.237-0.763c-0.832-0.509-1.464-1.245-1.898-2.21c-0.434-0.965-0.651-2.001-0.651-3.108
				c0-1.207,0.245-2.26,0.735-3.159s1.187-1.582,2.091-2.048c0.904-0.466,1.899-0.7,2.985-0.7c1.232,0,2.267,0.295,3.107,0.886
				c0.84,0.591,1.424,1.421,1.755,2.491l-1.604,0.356c-0.285-0.843-0.7-1.458-1.243-1.842c-0.543-0.385-1.226-0.577-2.049-0.577
				c-0.946,0-1.737,0.213-2.372,0.64c-0.636,0.427-1.082,1-1.339,1.72c-0.257,0.72-0.386,1.462-0.386,2.226
				c0,0.986,0.152,1.846,0.458,2.582c0.305,0.735,0.78,1.285,1.423,1.649c0.644,0.364,1.341,0.546,2.091,0.546
				c0.912,0,1.685-0.248,2.317-0.743C376.508,85.47,376.936,84.735,377.16,83.759z"/>
			<path d="M381.031,87.824v-1.621h1.721v1.621H381.031z"/>
		</g>
		<g>
			<path d="M123.96,115.292l4.368-9.593h1.621l4.655,9.593h-1.715l-1.327-2.905h-4.755l-1.249,2.905H123.96z M127.242,111.353h3.856
				l-1.187-2.656c-0.362-0.807-0.631-1.47-0.807-1.989c-0.145,0.615-0.349,1.226-0.613,1.832L127.242,111.353z"/>
			<path d="M135.146,112.851l1.124-0.083c0.053,0.38,0.177,0.692,0.372,0.935c0.194,0.244,0.496,0.44,0.906,0.591
				c0.409,0.15,0.87,0.225,1.383,0.225c0.455,0,0.856-0.057,1.204-0.171c0.348-0.114,0.607-0.27,0.777-0.469
				c0.17-0.199,0.255-0.415,0.255-0.65c0-0.238-0.082-0.446-0.246-0.624c-0.164-0.178-0.434-0.327-0.811-0.448
				c-0.242-0.079-0.776-0.203-1.604-0.37c-0.827-0.168-1.407-0.326-1.739-0.474c-0.43-0.19-0.751-0.426-0.961-0.707
				c-0.211-0.282-0.316-0.597-0.316-0.946c0-0.383,0.129-0.742,0.387-1.075c0.258-0.333,0.635-0.586,1.131-0.759
				c0.495-0.173,1.046-0.259,1.653-0.259c0.667,0,1.256,0.091,1.766,0.272c0.51,0.181,0.902,0.448,1.177,0.801
				c0.274,0.352,0.422,0.751,0.442,1.197l-1.143,0.073c-0.061-0.48-0.269-0.843-0.624-1.088c-0.354-0.245-0.878-0.368-1.57-0.368
				c-0.721,0-1.246,0.111-1.576,0.334s-0.494,0.492-0.494,0.806c0,0.273,0.117,0.498,0.35,0.674
				c0.229,0.176,0.828,0.357,1.797,0.541c0.969,0.185,1.633,0.346,1.994,0.484c0.524,0.204,0.911,0.462,1.161,0.775
				c0.25,0.313,0.375,0.673,0.375,1.08c0,0.404-0.137,0.785-0.412,1.143c-0.274,0.358-0.669,0.636-1.183,0.834
				c-0.514,0.199-1.093,0.298-1.736,0.298c-0.815,0-1.498-0.1-2.049-0.3c-0.551-0.2-0.983-0.502-1.296-0.904
				C135.327,113.815,135.162,113.359,135.146,112.851z"/>
			<path d="M143.968,115.292v-7.597h6.512v0.897h-5.321v2.327h4.983v0.891h-4.983v2.586h5.53v0.897H143.968z"/>
			<path d="M151.931,112.851l1.124-0.083c0.053,0.38,0.177,0.692,0.372,0.935c0.194,0.244,0.496,0.44,0.906,0.591
				c0.409,0.15,0.87,0.225,1.383,0.225c0.455,0,0.856-0.057,1.204-0.171c0.348-0.114,0.607-0.27,0.777-0.469
				c0.17-0.199,0.255-0.415,0.255-0.65c0-0.238-0.082-0.446-0.246-0.624c-0.164-0.178-0.434-0.327-0.811-0.448
				c-0.242-0.079-0.776-0.203-1.604-0.37c-0.827-0.168-1.407-0.326-1.739-0.474c-0.43-0.19-0.751-0.426-0.961-0.707
				c-0.211-0.282-0.316-0.597-0.316-0.946c0-0.383,0.129-0.742,0.387-1.075c0.258-0.333,0.635-0.586,1.131-0.759
				c0.495-0.173,1.046-0.259,1.653-0.259c0.667,0,1.256,0.091,1.766,0.272c0.51,0.181,0.902,0.448,1.177,0.801
				c0.274,0.352,0.422,0.751,0.442,1.197l-1.143,0.073c-0.061-0.48-0.269-0.843-0.624-1.088c-0.354-0.245-0.878-0.368-1.57-0.368
				c-0.721,0-1.246,0.111-1.576,0.334c-0.33,0.223-0.494,0.492-0.494,0.806c0,0.273,0.117,0.498,0.35,0.674
				c0.229,0.176,0.829,0.357,1.797,0.541c0.969,0.185,1.633,0.346,1.994,0.484c0.524,0.204,0.911,0.462,1.161,0.775
				c0.25,0.313,0.375,0.673,0.375,1.08c0,0.404-0.137,0.785-0.412,1.143c-0.274,0.358-0.669,0.636-1.183,0.834
				c-0.514,0.199-1.093,0.298-1.736,0.298c-0.815,0-1.498-0.1-2.049-0.3s-0.983-0.502-1.296-0.904
				C152.112,113.815,151.947,113.359,151.931,112.851z"/>
			<path d="M160.367,111.592c0-1.261,0.401-2.248,1.204-2.962c0.803-0.713,1.839-1.07,3.109-1.07c0.832,0,1.581,0.168,2.249,0.503
				c0.668,0.335,1.177,0.802,1.527,1.402c0.35,0.6,0.525,1.279,0.525,2.039c0,0.771-0.184,1.46-0.553,2.068
				c-0.369,0.608-0.891,1.068-1.567,1.381c-0.676,0.313-1.405,0.469-2.187,0.469c-0.848,0-1.606-0.173-2.273-0.518
				c-0.668-0.345-1.173-0.817-1.518-1.415C160.539,112.891,160.367,112.259,160.367,111.592z M161.596,111.608
				c0,0.916,0.292,1.637,0.875,2.164s1.316,0.79,2.197,0.79c0.897,0,1.635-0.266,2.215-0.798c0.579-0.532,0.869-1.287,0.869-2.265
				c0-0.618-0.124-1.158-0.372-1.619c-0.248-0.461-0.611-0.819-1.088-1.073c-0.477-0.254-1.013-0.381-1.607-0.381
				c-0.844,0-1.57,0.244-2.178,0.733C161.9,109.648,161.596,110.464,161.596,111.608z"/>
			<path d="M170.535,115.292v-7.597h3.994c0.803,0,1.413,0.068,1.831,0.205s0.751,0.377,1.001,0.723
				c0.25,0.346,0.375,0.727,0.375,1.145c0,0.539-0.207,0.993-0.621,1.363c-0.414,0.37-1.053,0.605-1.917,0.705
				c0.315,0.128,0.555,0.254,0.719,0.378c0.348,0.27,0.678,0.606,0.989,1.011l1.567,2.068h-1.499l-1.192-1.581
				c-0.348-0.456-0.635-0.805-0.86-1.047c-0.225-0.242-0.427-0.411-0.605-0.508c-0.178-0.097-0.359-0.164-0.544-0.202
				c-0.135-0.024-0.356-0.036-0.664-0.036h-1.382v3.374H170.535z M171.727,111.048h2.562c0.545,0,0.971-0.047,1.278-0.143
				c0.307-0.095,0.541-0.247,0.7-0.456c0.16-0.209,0.24-0.436,0.24-0.681c0-0.359-0.155-0.655-0.464-0.886
				c-0.309-0.231-0.798-0.347-1.465-0.347h-2.851V111.048z"/>
			<path d="M179.628,115.292v-7.597h6.512v0.897h-5.321v2.327h4.983v0.891h-4.983v2.586h5.53v0.897H179.628z"/>
			<path d="M187.591,112.851l1.124-0.083c0.053,0.38,0.177,0.692,0.372,0.935c0.194,0.244,0.496,0.44,0.906,0.591
				c0.409,0.15,0.87,0.225,1.383,0.225c0.455,0,0.856-0.057,1.204-0.171c0.348-0.114,0.607-0.27,0.777-0.469
				c0.17-0.199,0.255-0.415,0.255-0.65c0-0.238-0.082-0.446-0.246-0.624c-0.164-0.178-0.434-0.327-0.811-0.448
				c-0.242-0.079-0.776-0.203-1.604-0.37c-0.827-0.168-1.407-0.326-1.739-0.474c-0.43-0.19-0.751-0.426-0.961-0.707
				c-0.211-0.282-0.316-0.597-0.316-0.946c0-0.383,0.129-0.742,0.387-1.075c0.258-0.333,0.635-0.586,1.131-0.759
				c0.495-0.173,1.046-0.259,1.653-0.259c0.667,0,1.256,0.091,1.766,0.272c0.51,0.181,0.902,0.448,1.177,0.801
				c0.274,0.352,0.422,0.751,0.442,1.197l-1.143,0.073c-0.061-0.48-0.269-0.843-0.624-1.088c-0.354-0.245-0.878-0.368-1.57-0.368
				c-0.721,0-1.246,0.111-1.576,0.334s-0.494,0.492-0.494,0.806c0,0.273,0.117,0.498,0.35,0.674
				c0.229,0.176,0.829,0.357,1.797,0.541c0.969,0.185,1.633,0.346,1.994,0.484c0.524,0.204,0.911,0.462,1.161,0.775
				c0.25,0.313,0.375,0.673,0.375,1.08c0,0.404-0.137,0.785-0.412,1.143c-0.274,0.358-0.669,0.636-1.183,0.834
				c-0.514,0.199-1.093,0.298-1.736,0.298c-0.815,0-1.498-0.1-2.049-0.3s-0.983-0.502-1.296-0.904
				C187.772,113.815,187.607,113.359,187.591,112.851z"/>
			<path d="M200.17,115.292v-9.24h7.39v1.09h-5.941v2.861h5.141v1.09h-5.141v4.198H200.17z"/>
			<path d="M209.436,115.292v-7.597h1.192v7.597H209.436z"/>
			<path d="M212.324,112.851l1.124-0.083c0.053,0.38,0.177,0.692,0.372,0.935c0.194,0.244,0.496,0.44,0.906,0.591
				c0.409,0.15,0.87,0.225,1.383,0.225c0.455,0,0.856-0.057,1.204-0.171c0.348-0.114,0.607-0.27,0.777-0.469
				c0.17-0.199,0.255-0.415,0.255-0.65c0-0.238-0.082-0.446-0.246-0.624c-0.164-0.178-0.434-0.327-0.811-0.448
				c-0.242-0.079-0.776-0.203-1.604-0.37c-0.827-0.168-1.407-0.326-1.739-0.474c-0.43-0.19-0.751-0.426-0.961-0.707
				c-0.211-0.282-0.316-0.597-0.316-0.946c0-0.383,0.129-0.742,0.387-1.075c0.258-0.333,0.635-0.586,1.131-0.759
				c0.495-0.173,1.046-0.259,1.653-0.259c0.667,0,1.256,0.091,1.766,0.272c0.51,0.181,0.902,0.448,1.177,0.801
				c0.274,0.352,0.422,0.751,0.442,1.197l-1.143,0.073c-0.061-0.48-0.269-0.843-0.624-1.088c-0.354-0.245-0.878-0.368-1.57-0.368
				c-0.721,0-1.246,0.111-1.576,0.334s-0.494,0.492-0.494,0.806c0,0.273,0.117,0.498,0.35,0.674
				c0.229,0.176,0.829,0.357,1.797,0.541c0.969,0.185,1.633,0.346,1.994,0.484c0.524,0.204,0.911,0.462,1.161,0.775
				c0.25,0.313,0.375,0.673,0.375,1.08c0,0.404-0.137,0.785-0.412,1.143c-0.274,0.358-0.669,0.636-1.183,0.834
				c-0.514,0.199-1.093,0.298-1.736,0.298c-0.815,0-1.498-0.1-2.049-0.3s-0.983-0.502-1.296-0.904
				C212.505,113.815,212.34,113.359,212.324,112.851z"/>
			<path d="M227.549,112.629l1.192,0.254c-0.25,0.826-0.699,1.455-1.349,1.889c-0.649,0.434-1.443,0.65-2.381,0.65
				c-0.971,0-1.76-0.167-2.369-0.5c-0.608-0.333-1.071-0.816-1.389-1.449c-0.317-0.632-0.476-1.311-0.476-2.037
				c0-0.791,0.179-1.481,0.538-2.07c0.358-0.589,0.868-1.036,1.53-1.342c0.662-0.306,1.39-0.458,2.184-0.458
				c0.901,0,1.659,0.194,2.273,0.58c0.614,0.387,1.042,0.931,1.284,1.633l-1.174,0.233c-0.209-0.553-0.512-0.955-0.909-1.207
				c-0.397-0.252-0.897-0.378-1.499-0.378c-0.692,0-1.271,0.14-1.736,0.42c-0.465,0.28-0.792,0.656-0.98,1.127
				c-0.188,0.472-0.283,0.958-0.283,1.459c0,0.646,0.112,1.21,0.335,1.692c0.223,0.482,0.57,0.842,1.042,1.08
				c0.471,0.238,0.981,0.358,1.53,0.358c0.668,0,1.233-0.162,1.696-0.487C227.071,113.75,227.385,113.268,227.549,112.629z"/>
			<path d="M229.22,115.292l3.459-7.597h1.284l3.686,7.597h-1.358l-1.05-2.301h-3.766l-0.989,2.301H229.22z M231.818,112.173h3.054
				l-0.94-2.104c-0.287-0.639-0.5-1.164-0.639-1.575c-0.115,0.487-0.277,0.971-0.485,1.451L231.818,112.173z"/>
			<path d="M238.552,115.292v-7.597h1.192v6.701h4.436v0.897H238.552z"/>
			<path d="M245.624,115.292v-7.597h6.512v0.897h-5.321v2.327h4.983v0.891h-4.983v2.586h5.53v0.897H245.624z"/>
			<path d="M253.587,112.851l1.124-0.083c0.053,0.38,0.177,0.692,0.372,0.935c0.195,0.244,0.497,0.44,0.906,0.591
				c0.409,0.15,0.87,0.225,1.382,0.225c0.455,0,0.856-0.057,1.204-0.171c0.348-0.114,0.607-0.27,0.777-0.469
				c0.17-0.199,0.255-0.415,0.255-0.65c0-0.238-0.082-0.446-0.246-0.624c-0.164-0.178-0.434-0.327-0.811-0.448
				c-0.242-0.079-0.776-0.203-1.604-0.37c-0.827-0.168-1.407-0.326-1.739-0.474c-0.43-0.19-0.751-0.426-0.962-0.707
				c-0.211-0.282-0.316-0.597-0.316-0.946c0-0.383,0.129-0.742,0.387-1.075c0.258-0.333,0.635-0.586,1.13-0.759
				c0.496-0.173,1.047-0.259,1.653-0.259c0.668,0,1.256,0.091,1.766,0.272c0.51,0.181,0.902,0.448,1.177,0.801
				c0.274,0.352,0.422,0.751,0.442,1.197l-1.143,0.073c-0.061-0.48-0.269-0.843-0.624-1.088c-0.354-0.245-0.877-0.368-1.57-0.368
				c-0.721,0-1.246,0.111-1.576,0.334c-0.33,0.223-0.494,0.492-0.494,0.806c0,0.273,0.117,0.498,0.35,0.674
				c0.229,0.176,0.828,0.357,1.797,0.541c0.969,0.185,1.633,0.346,1.994,0.484c0.524,0.204,0.911,0.462,1.161,0.775
				c0.25,0.313,0.374,0.673,0.374,1.08c0,0.404-0.137,0.785-0.411,1.143c-0.274,0.358-0.669,0.636-1.183,0.834
				c-0.514,0.199-1.093,0.298-1.735,0.298c-0.815,0-1.498-0.1-2.049-0.3c-0.551-0.2-0.983-0.502-1.297-0.904
				C253.768,113.815,253.603,113.359,253.587,112.851z"/>
		</g>
		
			<line fill="none" stroke="#006647" stroke-width="1.3815" stroke-miterlimit="10" x1="94.785" y1="95.655" x2="290.591" y2="95.655"/>
		<g>
			<g>
				<g>
					<g>
						<g>
							<path fill="#006647" d="M202.392,36.179h-19.45c0,0-0.115,24.778,0.203,25.587c0.316,0.809,0.937,1.514,1.86,2.123
								c0.923,0.606,2.17,0.91,3.744,0.91h1.86v1.61h-29.449v-1.61h1.869c1.636,0,2.951-0.329,3.949-0.981
								c0.72-0.435,1.274-1.181,1.661-2.239c0.306-0.745,0.458-2.705,0.458-5.88V14.287c0-3.236-0.152-5.257-0.458-6.066
								c-0.305-0.808-0.92-1.516-1.847-2.122c-0.929-0.607-2.182-0.91-3.763-0.91l-1.869,0V3.578h29.449v1.611
								c-4.217,0.818-9.882,4.213-9.882,15.949c0,4.219,0.6,7.913,1.407,10.966l20.258,0c-2.244-1.814-7.727-7.355-7.727-14.023
								c0-0.513-0.006-1.358,0.518-1.358c0.293,0,0.433,0.3,0.572,1.095c0.199,1.128,1.088,2.673,2.955,2.673
								c1.868,0,1.735-0.675,4.409-0.675c2.429,0,5.885,3.203,5.885,3.203l1.851-2.204c0.208-0.247,0.663-0.882,0.663-1.997
								c0-2.63-3.291-3.757-5.914-6.29c-1.724-1.665-2.552-4.732-4.608-5.995c0.121-0.189,0.558-0.897,0.886-1.261
								c0.451-0.5,1.267-1.031,1.267-1.031s-0.681-0.308-1.795-0.308c-1.914,0-3.64,1.716-3.64,1.716s-1.433-0.458-2.924-0.458
								V3.578h29.449v1.611h-1.829c-1.662,0-2.981,0.326-3.948,0.98c-0.719,0.435-1.289,1.181-1.704,2.24
								c-0.304,0.746-0.458,2.706-0.458,5.878V55.7c0,3.237,0.154,5.258,0.458,6.066c0.304,0.809,0.928,1.514,1.869,2.123
								c0.943,0.606,2.203,0.91,3.783,0.91h1.829v1.61H194.79v-1.61h1.828c1.662,0,2.979-0.329,3.951-0.981
								c0.718-0.435,1.287-1.181,1.701-2.239C202.564,60.828,202.392,36.179,202.392,36.179z"/>
						</g>
					</g>
				</g>
			</g>
		</g>
	</g>
</g>
</svg>
